<svg id="eGS2uCJI97D1"
   xmlns="http://www.w3.org/2000/svg"
   xmlns:xlink="http://www.w3.org/1999/xlink" viewBox="0 0 512 512" shape-rendering="geometricPrecision" text-rendering="geometricPrecision" project-id="4e946ea6b8014ec2823e321ce7e17680" export-id="1e2440ba1bed4d62b6bd4c042dd8034f" cached="false">
   <g>
      <path d="M510.678,112.275c-2.308-11.626-7.463-22.265-14.662-31.054-1.518-1.915-3.104-3.63-4.823-5.345-12.755-12.818-30.657-20.814-50.214-20.814h-369.958c-19.557,0-37.395,7.996-50.21,20.814-1.715,1.715-3.301,3.43-4.823,5.345C8.785,90.009,3.63,100.649,1.386,112.275C0.464,116.762,0,121.399,0,126.087v259.833c0,9.968,2.114,19.55,5.884,28.203c3.497,8.26,8.653,15.734,14.926,22.001c1.59,1.586,3.169,3.044,4.892,4.494c12.286,10.175,28.145,16.32,45.319,16.32h369.958c17.18,0,33.108-6.145,45.323-16.384c1.718-1.386,3.305-2.844,4.891-4.43c6.27-6.267,11.425-13.741,14.994-22.001v-.064c3.769-8.653,5.812-18.171,5.812-28.138v-259.834c.001-4.688-.456-9.325-1.321-13.812ZM46.509,101.571c6.345-6.338,14.866-10.175,24.512-10.175h369.958c9.646,0,18.242,3.837,24.512,10.175c1.122,1.129,2.179,2.387,3.112,3.637L274.696,274.203c-5.348,4.687-11.954,7.002-18.696,7.002-6.674,0-13.276-2.315-18.695-7.002L43.472,105.136c.858-1.25,1.915-2.436,3.037-3.565ZM36.334,385.92v-243.185L176.658,265.15L36.405,387.435c-.071-.464-.071-.986-.071-1.515Zm404.645,34.677h-369.958c-6.281,0-12.158-1.651-17.174-4.552L201.825,287.086l13.815,12.018c11.561,10.046,26.028,15.134,40.36,15.134c14.406,0,28.872-5.088,40.432-15.134l13.808-12.018L458.16,416.045c-5.023,2.901-10.9,4.552-17.181,4.552Zm34.687-34.677c0,.529,0,1.051-.068,1.515L335.346,265.221L475.666,142.8v243.12Z" fill="#fff"/>
   </g>
</svg>