<svg id="e6i2VyhUn9H1" xmlns="http://www.w3.org/2000/svg" xmlns:xlink="http://www.w3.org/1999/xlink" viewBox="0 0 24 24" shape-rendering="geometricPrecision" text-rendering="geometricPrecision" project-id="78e552fa5d8b415ea1f7f73e7e033b86" export-id="e6eebfaae30047d4ac90b4088a77f9a5" cached="false"><path d="M5.11596,12.7268l3.0386-3.64014c.30799-.39599.46199-.59399.5427-.81605.07141-.1965.10095-.40575.08674-.61433-.01607-.23573-.10923-.46862-.29554-.93441l-.7107-1.77674c-.27572-.68932-.41359-1.03397-.65141-1.25988-.20957-.19907-.47218-.33335-.75626-.38669-.32239-.06053-.68251.0295-1.40276.20956L3,4.00002C3,14,9.99969,21,20,21l.4916-1.9676c.1801-.7202.2701-1.0804.2096-1.4027-.0534-.2841-.1876-.5467-.3867-.7563-.2259-.2378-.5706-.3757-1.2599-.6514l-1.5855-.6342c-.5314-.2126-.7971-.3189-1.062-.327-.2342-.0072-.4667.0405-.6791.1394-.2403.1118-.4426.3142-.8473.7189l-3.0864,3.0378" fill="none" stroke="#fff" stroke-width="2" stroke-linecap="round" stroke-linejoin="round"/></svg>
