<svg id="eZtrfcHwO0V1" xmlns="http://www.w3.org/2000/svg" xmlns:xlink="http://www.w3.org/1999/xlink" viewBox="0 0 15 15" shape-rendering="geometricPrecision" text-rendering="geometricPrecision" project-id="be8b7cd70f104f6cb887013ad0c4d519" export-id="109d984cc8b3474eac634db589505f21" cached="false"><path d="M14.9932,1.58221c.0291-.17485-.0365-.35205-.1724-.46576-.136-.11371-.322-.146931-.489-.08731l-13.999964,5c-.188627.06736-.318849.2408-.330922.44073s.096333.38778.275484.47735l4.000002,2c.16048.08024.35166.06834.50095-.03119l3.3204-2.21359L6.10957,9.18766c-.08754.10943-.12515.25058-.10365.38906s.10013.26158.21673.33931L12.2227,13.916c.1411.0941.3204.1102.4761.0428s.2665-.2092.2944-.3766l2-11.99999Z" fill="#fff"/></svg>
